<?xml version="1.0" encoding="UTF-8" standalone="no"?><svg xmlns="http://www.w3.org/2000/svg" xmlns:xlink="http://www.w3.org/1999/xlink" contentScriptType="application/ecmascript" contentStyleType="text/css" height="686px" preserveAspectRatio="none" style="width:735px;height:686px;" version="1.1" viewBox="0 0 735 686" width="735px" zoomAndPan="magnify"><defs><filter height="300%" id="f84g3wdr7kob4" width="300%" x="-1" y="-1"><feGaussianBlur result="blurOut" stdDeviation="2.0"/><feColorMatrix in="blurOut" result="blurOut2" type="matrix" values="0 0 0 0 0 0 0 0 0 0 0 0 0 0 0 0 0 0 .4 0"/><feOffset dx="4.0" dy="4.0" in="blurOut2" result="blurOut3"/><feBlend in="SourceGraphic" in2="blurOut3" mode="normal"/></filter></defs><g><ellipse cx="341.125" cy="20" fill="#000000" filter="url(#f84g3wdr7kob4)" rx="10" ry="10" style="stroke: none; stroke-width: 1.0;"/><rect fill="#F8F8F8" filter="url(#f84g3wdr7kob4)" height="75.875" rx="12.5" ry="12.5" style="stroke: #383838; stroke-width: 1.5;" width="125" x="278.625" y="50"/><text fill="#000000" font-family="monospace" font-size="12" font-weight="bold" lengthAdjust="spacingAndGlyphs" textLength="49" x="288.625" y="71.1387">mapping</text><text fill="#000000" font-family="Bitstream Vera Sans Mono" font-size="12" lengthAdjust="spacingAndGlyphs" textLength="7" x="337.625" y="71.1387">:</text><text fill="#000000" font-family="Bitstream Vera Sans Mono" font-size="12" lengthAdjust="spacingAndGlyphs" textLength="7" x="288.625" y="85.1074">-</text><text fill="#000000" font-family="monospace" font-size="12" font-weight="bold" lengthAdjust="spacingAndGlyphs" textLength="91" x="302.625" y="85.1074">source_column</text><text fill="#000000" font-family="Bitstream Vera Sans Mono" font-size="12" lengthAdjust="spacingAndGlyphs" textLength="7" x="288.625" y="99.0762">-</text><text fill="#000000" font-family="monospace" font-size="12" font-weight="bold" lengthAdjust="spacingAndGlyphs" textLength="28" x="302.625" y="99.0762">name</text><text fill="#000000" font-family="Bitstream Vera Sans Mono" font-size="12" lengthAdjust="spacingAndGlyphs" textLength="7" x="288.625" y="113.0449">-</text><text fill="#000000" font-family="monospace" font-size="12" font-weight="bold" lengthAdjust="spacingAndGlyphs" textLength="63" x="302.625" y="113.0449">data_type</text><polygon fill="#F8F8F8" filter="url(#f84g3wdr7kob4)" points="243.125,201.5854,439.125,201.5854,451.125,213.5854,439.125,225.5854,243.125,225.5854,231.125,213.5854,243.125,201.5854" style="stroke: #383838; stroke-width: 1.5;"/><text fill="#000000" font-family="monospace" font-size="11" font-weight="bold" lengthAdjust="spacingAndGlyphs" textLength="63" x="243.125" y="217.3936">data_type</text><text fill="#000000" font-family="Bitstream Vera Sans Mono" font-size="11" lengthAdjust="spacingAndGlyphs" textLength="126" x="313.125" y="217.3936">is Spark built-in?</text><text fill="#000000" font-family="Bitstream Vera Sans Mono" font-size="11" lengthAdjust="spacingAndGlyphs" textLength="21" x="210.125" y="210.9912">yes</text><text fill="#000000" font-family="Bitstream Vera Sans Mono" font-size="11" lengthAdjust="spacingAndGlyphs" textLength="14" x="451.125" y="210.9912">no</text><polygon fill="#F8F8F8" filter="url(#f84g3wdr7kob4)" points="122.25,235.5854,213.25,235.5854,225.25,248.3901,213.25,261.1948,122.25,261.1948,110.25,248.3901,122.25,235.5854" style="stroke: #383838; stroke-width: 1.5;"/><text fill="#000000" font-family="monospace" font-size="11" font-weight="bold" lengthAdjust="spacingAndGlyphs" textLength="91" x="122.25" y="245.7959">source_column</text><text fill="#000000" font-family="Bitstream Vera Sans Mono" font-size="11" lengthAdjust="spacingAndGlyphs" textLength="77" x="129.25" y="258.6006">is missing?</text><text fill="#000000" font-family="Bitstream Vera Sans Mono" font-size="11" lengthAdjust="spacingAndGlyphs" textLength="21" x="89.25" y="245.7959">yes</text><text fill="#000000" font-family="Bitstream Vera Sans Mono" font-size="11" lengthAdjust="spacingAndGlyphs" textLength="14" x="225.25" y="245.7959">no</text><rect fill="#F8F8F8" filter="url(#f84g3wdr7kob4)" height="33.9688" rx="12.5" ry="12.5" style="stroke: #383838; stroke-width: 1.5;" width="104" x="38" y="271.1948"/><text fill="#000000" font-family="Bitstream Vera Sans Mono" font-size="12" lengthAdjust="spacingAndGlyphs" textLength="49" x="48" y="292.3335">Value =</text><text fill="#000000" font-family="monospace" font-size="12" font-weight="bold" lengthAdjust="spacingAndGlyphs" textLength="28" x="104" y="292.3335">None</text><rect fill="#F8F8F8" filter="url(#f84g3wdr7kob4)" height="33.9688" rx="12.5" ry="12.5" style="stroke: #383838; stroke-width: 1.5;" width="167" x="162" y="271.1948"/><text fill="#000000" font-family="Bitstream Vera Sans Mono" font-size="12" lengthAdjust="spacingAndGlyphs" textLength="49" x="172" y="292.3335">Value =</text><text fill="#000000" font-family="monospace" font-size="12" font-weight="bold" lengthAdjust="spacingAndGlyphs" textLength="91" x="228" y="292.3335">source_column</text><polygon fill="#F8F8F8" filter="url(#f84g3wdr7kob4)" points="167.75,311.1636,179.75,323.1636,167.75,335.1636,155.75,323.1636,167.75,311.1636" style="stroke: #383838; stroke-width: 1.5;"/><rect fill="#F8F8F8" filter="url(#f84g3wdr7kob4)" height="33.9688" rx="12.5" ry="12.5" style="stroke: #383838; stroke-width: 1.5;" width="118" x="108.75" y="370.1636"/><text fill="#000000" font-family="Bitstream Vera Sans Mono" font-size="12" lengthAdjust="spacingAndGlyphs" textLength="63" x="118.75" y="391.3022">rename to</text><text fill="#000000" font-family="monospace" font-size="12" font-weight="bold" lengthAdjust="spacingAndGlyphs" textLength="28" x="188.75" y="391.3022">name</text><rect fill="#F8F8F8" filter="url(#f84g3wdr7kob4)" height="33.9688" rx="12.5" ry="12.5" style="stroke: #383838; stroke-width: 1.5;" width="139" x="98.25" y="439.1323"/><text fill="#000000" font-family="Bitstream Vera Sans Mono" font-size="12" lengthAdjust="spacingAndGlyphs" textLength="49" x="108.25" y="460.271">cast as</text><text fill="#000000" font-family="monospace" font-size="12" font-weight="bold" lengthAdjust="spacingAndGlyphs" textLength="63" x="164.25" y="460.271">data_type</text><polygon fill="#F8F8F8" filter="url(#f84g3wdr7kob4)" points="469,235.5854,560,235.5854,572,248.3901,560,261.1948,469,261.1948,457,248.3901,469,235.5854" style="stroke: #383838; stroke-width: 1.5;"/><text fill="#000000" font-family="monospace" font-size="11" font-weight="bold" lengthAdjust="spacingAndGlyphs" textLength="91" x="469" y="245.7959">source_column</text><text fill="#000000" font-family="Bitstream Vera Sans Mono" font-size="11" lengthAdjust="spacingAndGlyphs" textLength="77" x="476" y="258.6006">is missing?</text><text fill="#000000" font-family="Bitstream Vera Sans Mono" font-size="11" lengthAdjust="spacingAndGlyphs" textLength="21" x="436" y="245.7959">yes</text><text fill="#000000" font-family="Bitstream Vera Sans Mono" font-size="11" lengthAdjust="spacingAndGlyphs" textLength="14" x="572" y="245.7959">no</text><rect fill="#F8F8F8" filter="url(#f84g3wdr7kob4)" height="33.9688" rx="12.5" ry="12.5" style="stroke: #383838; stroke-width: 1.5;" width="104" x="376" y="271.1948"/><text fill="#000000" font-family="Bitstream Vera Sans Mono" font-size="12" lengthAdjust="spacingAndGlyphs" textLength="49" x="386" y="292.3335">Value =</text><text fill="#000000" font-family="monospace" font-size="12" font-weight="bold" lengthAdjust="spacingAndGlyphs" textLength="28" x="442" y="292.3335">None</text><rect fill="#F8F8F8" filter="url(#f84g3wdr7kob4)" height="33.9688" rx="12.5" ry="12.5" style="stroke: #383838; stroke-width: 1.5;" width="118" x="369" y="340.1636"/><text fill="#000000" font-family="Bitstream Vera Sans Mono" font-size="12" lengthAdjust="spacingAndGlyphs" textLength="63" x="379" y="361.3022">rename to</text><text fill="#000000" font-family="monospace" font-size="12" font-weight="bold" lengthAdjust="spacingAndGlyphs" textLength="28" x="449" y="361.3022">name</text><rect fill="#F8F8F8" filter="url(#f84g3wdr7kob4)" height="33.9688" rx="12.5" ry="12.5" style="stroke: #383838; stroke-width: 1.5;" width="167" x="517.5" y="271.1948"/><text fill="#000000" font-family="Bitstream Vera Sans Mono" font-size="12" lengthAdjust="spacingAndGlyphs" textLength="49" x="527.5" y="292.3335">Value =</text><text fill="#000000" font-family="monospace" font-size="12" font-weight="bold" lengthAdjust="spacingAndGlyphs" textLength="91" x="583.5" y="292.3335">source_column</text><rect fill="#F8F8F8" filter="url(#f84g3wdr7kob4)" height="103.8125" rx="12.5" ry="12.5" style="stroke: #383838; stroke-width: 1.5;" width="188" x="507" y="340.1636"/><text fill="#000000" font-family="Bitstream Vera Sans Mono" font-size="12" lengthAdjust="spacingAndGlyphs" textLength="168" x="517" y="361.3022">_get_select_expression_↩</text><text fill="#000000" font-family="Bitstream Vera Sans Mono" font-size="12" lengthAdjust="spacingAndGlyphs" textLength="119" x="524" y="375.271">↪for_custom_type(</text><text fill="#000000" font-family="Bitstream Vera Sans Mono" font-size="12" lengthAdjust="spacingAndGlyphs" textLength="0" x="545" y="389.2397"/><text fill="#000000" font-family="monospace" font-size="12" font-weight="bold" lengthAdjust="spacingAndGlyphs" textLength="91" x="545" y="389.2397">source_column</text><text fill="#000000" font-family="Bitstream Vera Sans Mono" font-size="12" lengthAdjust="spacingAndGlyphs" textLength="7" x="636" y="389.2397">,</text><text fill="#000000" font-family="Bitstream Vera Sans Mono" font-size="12" lengthAdjust="spacingAndGlyphs" textLength="0" x="545" y="403.2085"/><text fill="#000000" font-family="monospace" font-size="12" font-weight="bold" lengthAdjust="spacingAndGlyphs" textLength="28" x="545" y="403.2085">name</text><text fill="#000000" font-family="Bitstream Vera Sans Mono" font-size="12" lengthAdjust="spacingAndGlyphs" textLength="7" x="573" y="403.2085">,</text><text fill="#000000" font-family="Bitstream Vera Sans Mono" font-size="12" lengthAdjust="spacingAndGlyphs" textLength="0" x="545" y="417.1772"/><text fill="#000000" font-family="monospace" font-size="12" font-weight="bold" lengthAdjust="spacingAndGlyphs" textLength="63" x="545" y="417.1772">data_type</text><text fill="#000000" font-family="Bitstream Vera Sans Mono" font-size="12" lengthAdjust="spacingAndGlyphs" textLength="7" x="517" y="431.146">)</text><polygon fill="#F8F8F8" filter="url(#f84g3wdr7kob4)" points="514.5,449.9761,526.5,461.9761,514.5,473.9761,502.5,461.9761,514.5,449.9761" style="stroke: #383838; stroke-width: 1.5;"/><polygon fill="#F8F8F8" filter="url(#f84g3wdr7kob4)" points="341.125,479.9761,353.125,491.9761,341.125,503.9761,329.125,491.9761,341.125,479.9761" style="stroke: #383838; stroke-width: 1.5;"/><rect fill="#F8F8F8" filter="url(#f84g3wdr7kob4)" height="33.9688" rx="12.5" ry="12.5" style="stroke: #383838; stroke-width: 1.5;" width="237" x="222.625" y="523.9761"/><text fill="#000000" font-family="Bitstream Vera Sans Mono" font-size="12" lengthAdjust="spacingAndGlyphs" textLength="217" x="232.625" y="545.1147">add to global select expression</text><polygon fill="#F8F8F8" filter="url(#f84g3wdr7kob4)" points="218.625,145.875,463.625,145.875,475.625,157.875,463.625,169.875,218.625,169.875,206.625,157.875,218.625,145.875" style="stroke: #383838; stroke-width: 1.5;"/><text fill="#000000" font-family="Bitstream Vera Sans Mono" font-size="11" lengthAdjust="spacingAndGlyphs" textLength="21" x="345.125" y="180.0854">yes</text><text fill="#000000" font-family="Bitstream Vera Sans Mono" font-size="11" lengthAdjust="spacingAndGlyphs" textLength="182" x="218.625" y="161.6831">unprocessed definitions in</text><text fill="#000000" font-family="monospace" font-size="11" font-weight="bold" lengthAdjust="spacingAndGlyphs" textLength="49" x="407.625" y="161.6831">mapping</text><text fill="#000000" font-family="Bitstream Vera Sans Mono" font-size="11" lengthAdjust="spacingAndGlyphs" textLength="7" x="456.625" y="161.6831">?</text><text fill="#000000" font-family="Bitstream Vera Sans Mono" font-size="11" lengthAdjust="spacingAndGlyphs" textLength="14" x="192.625" y="155.2808">no</text><rect fill="#F8F8F8" filter="url(#f84g3wdr7kob4)" height="33.9688" rx="12.5" ry="12.5" style="stroke: #383838; stroke-width: 1.5;" width="237" x="222.625" y="599.9448"/><text fill="#000000" font-family="Bitstream Vera Sans Mono" font-size="12" lengthAdjust="spacingAndGlyphs" textLength="217" x="232.625" y="621.0835">return global select expression</text><ellipse cx="341.125" cy="664.9136" fill="#FFFFFF" filter="url(#f84g3wdr7kob4)" rx="11" ry="11" style="stroke: #000000; stroke-width: 1.0;"/><ellipse cx="341.125" cy="664.9136" fill="#000000" rx="6" ry="6" style="stroke: #7F7F7F; stroke-width: 1.0;"/><line style="stroke: #383838; stroke-width: 1.5;" x1="341.125" x2="341.125" y1="30" y2="50"/><polygon fill="#383838" points="337.125,40,341.125,50,345.125,40,341.125,44" style="stroke: #383838; stroke-width: 1.0;"/><line style="stroke: #383838; stroke-width: 1.5;" x1="110.25" x2="90" y1="248.3901" y2="248.3901"/><line style="stroke: #383838; stroke-width: 1.5;" x1="90" x2="90" y1="248.3901" y2="271.1948"/><polygon fill="#383838" points="86,261.1948,90,271.1948,94,261.1948,90,265.1948" style="stroke: #383838; stroke-width: 1.0;"/><line style="stroke: #383838; stroke-width: 1.5;" x1="225.25" x2="245.5" y1="248.3901" y2="248.3901"/><line style="stroke: #383838; stroke-width: 1.5;" x1="245.5" x2="245.5" y1="248.3901" y2="271.1948"/><polygon fill="#383838" points="241.5,261.1948,245.5,271.1948,249.5,261.1948,245.5,265.1948" style="stroke: #383838; stroke-width: 1.0;"/><line style="stroke: #383838; stroke-width: 1.5;" x1="90" x2="90" y1="305.1636" y2="323.1636"/><line style="stroke: #383838; stroke-width: 1.5;" x1="90" x2="155.75" y1="323.1636" y2="323.1636"/><polygon fill="#383838" points="145.75,319.1636,155.75,323.1636,145.75,327.1636,149.75,323.1636" style="stroke: #383838; stroke-width: 1.0;"/><line style="stroke: #383838; stroke-width: 1.5;" x1="245.5" x2="245.5" y1="305.1636" y2="323.1636"/><line style="stroke: #383838; stroke-width: 1.5;" x1="245.5" x2="179.75" y1="323.1636" y2="323.1636"/><polygon fill="#383838" points="189.75,319.1636,179.75,323.1636,189.75,327.1636,185.75,323.1636" style="stroke: #383838; stroke-width: 1.0;"/><line style="stroke: #383838; stroke-width: 1.5;" x1="167.75" x2="167.75" y1="335.1636" y2="370.1636"/><polygon fill="#383838" points="163.75,360.1636,167.75,370.1636,171.75,360.1636,167.75,364.1636" style="stroke: #383838; stroke-width: 1.0;"/><line style="stroke: #383838; stroke-width: 1.5;" x1="167.75" x2="167.75" y1="404.1323" y2="439.1323"/><polygon fill="#383838" points="163.75,429.1323,167.75,439.1323,171.75,429.1323,167.75,433.1323" style="stroke: #383838; stroke-width: 1.0;"/><line style="stroke: #383838; stroke-width: 1.5;" x1="428" x2="428" y1="305.1636" y2="340.1636"/><polygon fill="#383838" points="424,330.1636,428,340.1636,432,330.1636,428,334.1636" style="stroke: #383838; stroke-width: 1.0;"/><line style="stroke: #383838; stroke-width: 1.5;" x1="601" x2="601" y1="305.1636" y2="340.1636"/><polygon fill="#383838" points="597,330.1636,601,340.1636,605,330.1636,601,334.1636" style="stroke: #383838; stroke-width: 1.0;"/><line style="stroke: #383838; stroke-width: 1.5;" x1="457" x2="428" y1="248.3901" y2="248.3901"/><line style="stroke: #383838; stroke-width: 1.5;" x1="428" x2="428" y1="248.3901" y2="271.1948"/><polygon fill="#383838" points="424,261.1948,428,271.1948,432,261.1948,428,265.1948" style="stroke: #383838; stroke-width: 1.0;"/><line style="stroke: #383838; stroke-width: 1.5;" x1="572" x2="601" y1="248.3901" y2="248.3901"/><line style="stroke: #383838; stroke-width: 1.5;" x1="601" x2="601" y1="248.3901" y2="271.1948"/><polygon fill="#383838" points="597,261.1948,601,271.1948,605,261.1948,601,265.1948" style="stroke: #383838; stroke-width: 1.0;"/><line style="stroke: #383838; stroke-width: 1.5;" x1="428" x2="428" y1="374.1323" y2="461.9761"/><line style="stroke: #383838; stroke-width: 1.5;" x1="428" x2="502.5" y1="461.9761" y2="461.9761"/><polygon fill="#383838" points="492.5,457.9761,502.5,461.9761,492.5,465.9761,496.5,461.9761" style="stroke: #383838; stroke-width: 1.0;"/><line style="stroke: #383838; stroke-width: 1.5;" x1="601" x2="601" y1="443.9761" y2="461.9761"/><line style="stroke: #383838; stroke-width: 1.5;" x1="601" x2="526.5" y1="461.9761" y2="461.9761"/><polygon fill="#383838" points="536.5,457.9761,526.5,461.9761,536.5,465.9761,532.5,461.9761" style="stroke: #383838; stroke-width: 1.0;"/><line style="stroke: #383838; stroke-width: 1.5;" x1="231.125" x2="167.75" y1="213.5854" y2="213.5854"/><line style="stroke: #383838; stroke-width: 1.5;" x1="167.75" x2="167.75" y1="213.5854" y2="235.5854"/><polygon fill="#383838" points="163.75,225.5854,167.75,235.5854,171.75,225.5854,167.75,229.5854" style="stroke: #383838; stroke-width: 1.0;"/><line style="stroke: #383838; stroke-width: 1.5;" x1="451.125" x2="514.5" y1="213.5854" y2="213.5854"/><line style="stroke: #383838; stroke-width: 1.5;" x1="514.5" x2="514.5" y1="213.5854" y2="235.5854"/><polygon fill="#383838" points="510.5,225.5854,514.5,235.5854,518.5,225.5854,514.5,229.5854" style="stroke: #383838; stroke-width: 1.0;"/><line style="stroke: #383838; stroke-width: 1.5;" x1="167.75" x2="167.75" y1="473.1011" y2="491.9761"/><line style="stroke: #383838; stroke-width: 1.5;" x1="167.75" x2="329.125" y1="491.9761" y2="491.9761"/><polygon fill="#383838" points="319.125,487.9761,329.125,491.9761,319.125,495.9761,323.125,491.9761" style="stroke: #383838; stroke-width: 1.0;"/><line style="stroke: #383838; stroke-width: 1.5;" x1="514.5" x2="514.5" y1="473.9761" y2="491.9761"/><line style="stroke: #383838; stroke-width: 1.5;" x1="514.5" x2="353.125" y1="491.9761" y2="491.9761"/><polygon fill="#383838" points="363.125,487.9761,353.125,491.9761,363.125,495.9761,359.125,491.9761" style="stroke: #383838; stroke-width: 1.0;"/><line style="stroke: #383838; stroke-width: 1.5;" x1="341.125" x2="341.125" y1="503.9761" y2="523.9761"/><polygon fill="#383838" points="337.125,513.9761,341.125,523.9761,345.125,513.9761,341.125,517.9761" style="stroke: #383838; stroke-width: 1.0;"/><line style="stroke: #383838; stroke-width: 1.5;" x1="341.125" x2="341.125" y1="169.875" y2="201.5854"/><polygon fill="#383838" points="337.125,191.5854,341.125,201.5854,345.125,191.5854,341.125,195.5854" style="stroke: #383838; stroke-width: 1.0;"/><line style="stroke: #383838; stroke-width: 1.5;" x1="341.125" x2="341.125" y1="557.9448" y2="567.9448"/><line style="stroke: #383838; stroke-width: 1.5;" x1="341.125" x2="709" y1="567.9448" y2="567.9448"/><polygon fill="#383838" points="705,378.8628,709,368.8628,713,378.8628,709,374.8628" style="stroke: #383838; stroke-width: 1.5;"/><line style="stroke: #383838; stroke-width: 1.5;" x1="709" x2="709" y1="157.875" y2="567.9448"/><line style="stroke: #383838; stroke-width: 1.5;" x1="709" x2="475.625" y1="157.875" y2="157.875"/><polygon fill="#383838" points="485.625,153.875,475.625,157.875,485.625,161.875,481.625,157.875" style="stroke: #383838; stroke-width: 1.0;"/><line style="stroke: #383838; stroke-width: 1.5;" x1="206.625" x2="24" y1="157.875" y2="157.875"/><polygon fill="#383838" points="20,364.8628,24,374.8628,28,364.8628,24,368.8628" style="stroke: #383838; stroke-width: 1.5;"/><line style="stroke: #383838; stroke-width: 1.5;" x1="24" x2="24" y1="157.875" y2="579.9448"/><line style="stroke: #383838; stroke-width: 1.5;" x1="24" x2="341.125" y1="579.9448" y2="579.9448"/><line style="stroke: #383838; stroke-width: 1.5;" x1="341.125" x2="341.125" y1="579.9448" y2="599.9448"/><polygon fill="#383838" points="337.125,589.9448,341.125,599.9448,345.125,589.9448,341.125,593.9448" style="stroke: #383838; stroke-width: 1.0;"/><line style="stroke: #383838; stroke-width: 1.5;" x1="341.125" x2="341.125" y1="125.875" y2="145.875"/><polygon fill="#383838" points="337.125,135.875,341.125,145.875,345.125,135.875,341.125,139.875" style="stroke: #383838; stroke-width: 1.0;"/><line style="stroke: #383838; stroke-width: 1.5;" x1="341.125" x2="341.125" y1="633.9136" y2="653.9136"/><polygon fill="#383838" points="337.125,643.9136,341.125,653.9136,345.125,643.9136,341.125,647.9136" style="stroke: #383838; stroke-width: 1.0;"/><!--MD5=[92180262b2c63f724ddc9c7f99eaa315]
@startuml
start

skinparam monochrome true
skinparam defaultFontname Bitstream Vera Sans Mono

:**""mapping""**:
- **""source_column""**
- **""name""**
- **""data_type""**;
while (unprocessed definitions in **""mapping""**?) is (yes)
  if (**""data_type""** is Spark built-in?) then (yes)
    if (**""source_column""**\n is missing?) then (yes)
      :Value = **""None""**;
    else (no)
      :Value = **""source_column""**;
    endif
    :rename to **""name""**;
    :cast as **""data_type""**;
  else (no)
    if (**""source_column""**\n is missing?) then (yes)
      :Value = **""None""**;
      :rename to **""name""**;
    else (no)
      :Value = **""source_column""**;
      :_get_select_expression_↩
       ↪for_custom_type(
          **""source_column""**, 
          **""name""**, 
          **""data_type""**
      );
    endif
  endif
  :add to global select expression;
endwhile (no)
:return global select expression;

stop
@enduml

PlantUML version 1.2020.07(Sun Apr 19 13:42:40 CEST 2020)
(GPL source distribution)
Java Runtime: OpenJDK Runtime Environment
JVM: OpenJDK 64-Bit Server VM
Java Version: 1.8.0_242-b08
Operating System: Linux
Default Encoding: UTF-8
Language: en
Country: US
--></g></svg>