<?xml version="1.0" encoding="UTF-8" standalone="no"?><svg xmlns="http://www.w3.org/2000/svg" xmlns:xlink="http://www.w3.org/1999/xlink" contentScriptType="application/ecmascript" contentStyleType="text/css" height="957px" preserveAspectRatio="none" style="width:1073px;height:957px;" version="1.1" viewBox="0 0 1073 957" width="1073px" zoomAndPan="magnify"><defs><filter height="300%" id="f19q8t9w0ayjyh" width="300%" x="-1" y="-1"><feGaussianBlur result="blurOut" stdDeviation="2.0"/><feColorMatrix in="blurOut" result="blurOut2" type="matrix" values="0 0 0 0 0 0 0 0 0 0 0 0 0 0 0 0 0 0 .4 0"/><feOffset dx="4.0" dy="4.0" in="blurOut2" result="blurOut3"/><feBlend in="SourceGraphic" in2="blurOut3" mode="normal"/></filter></defs><g><!--MD5=[cbfbe30d7906789c5a6b3a4eb4c03b0d]
cluster extractor--><polygon fill="#FFFFFF" filter="url(#f19q8t9w0ayjyh)" points="500,32,605,32,612,58.9531,1051,58.9531,1051,352,500,352,500,32" style="stroke: #000000; stroke-width: 1.5;"/><line style="stroke: #000000; stroke-width: 1.5;" x1="500" x2="612" y1="58.9531" y2="58.9531"/><text fill="#000000" font-family="Bitstream Vera Sans Mono" font-size="18" font-weight="bold" lengthAdjust="spacingAndGlyphs" textLength="99" x="504" y="50.708">extractor</text><!--MD5=[60057987766a1f2f00616574102b14d3]
cluster transformer--><polygon fill="#FFFFFF" filter="url(#f19q8t9w0ayjyh)" points="489,392,616,392,623,418.9531,1007,418.9531,1007,781,489,781,489,392" style="stroke: #000000; stroke-width: 1.5;"/><line style="stroke: #000000; stroke-width: 1.5;" x1="489" x2="623" y1="418.9531" y2="418.9531"/><text fill="#000000" font-family="Bitstream Vera Sans Mono" font-size="18" font-weight="bold" lengthAdjust="spacingAndGlyphs" textLength="121" x="493" y="410.708">transformer</text><!--MD5=[3059eaac1fd4f9745a2d6cfe842c4363]
cluster loader--><polygon fill="#FFFFFF" filter="url(#f19q8t9w0ayjyh)" points="516.5,821,588.5,821,595.5,847.9531,974,847.9531,974,945,516.5,945,516.5,821" style="stroke: #000000; stroke-width: 1.5;"/><line style="stroke: #000000; stroke-width: 1.5;" x1="516.5" x2="595.5" y1="847.9531" y2="847.9531"/><text fill="#000000" font-family="Bitstream Vera Sans Mono" font-size="18" font-weight="bold" lengthAdjust="spacingAndGlyphs" textLength="66" x="520.5" y="839.708">loader</text><!--MD5=[6328af41db0f7dbb733c9192827ed26b]
cluster pipeline--><polygon fill="#FFFFFF" filter="url(#f19q8t9w0ayjyh)" points="22,717,116,717,123,743.9531,253,743.9531,253,897,22,897,22,717" style="stroke: #000000; stroke-width: 1.5;"/><line style="stroke: #000000; stroke-width: 1.5;" x1="22" x2="123" y1="743.9531" y2="743.9531"/><text fill="#000000" font-family="Bitstream Vera Sans Mono" font-size="18" font-weight="bold" lengthAdjust="spacingAndGlyphs" textLength="88" x="26" y="735.708">pipeline</text><!--MD5=[45d5b4d0d0ef53375ad1c88c627ff544]
class extractor.Extractor--><rect fill="#F8F8F8" filter="url(#f19q8t9w0ayjyh)" height="34" id="extractor.Extractor" style="stroke: #383838; stroke-width: 1.5;" width="133" x="524" y="148"/><ellipse cx="540" cy="165" fill="#C2C2C2" rx="12" ry="12" style="stroke: #383838; stroke-width: 1.0;"/><path d="M543,171.125 Q542.3906,171.4375 541.7031,171.5938 Q541.0313,171.75 540.2813,171.75 Q537.625,171.75 536.2344,170 Q534.8438,168.25 534.8438,164.9531 Q534.8438,161.6406 536.2344,159.8906 Q537.625,158.1406 540.2813,158.1406 Q541.0313,158.1406 541.7188,158.2969 Q542.4063,158.4531 543,158.7656 L543,161.6563 Q542.3281,161.0469 541.7031,160.7656 Q541.0781,160.4688 540.4063,160.4688 Q538.9844,160.4688 538.25,161.6094 Q537.5313,162.7344 537.5313,164.9531 Q537.5313,167.1719 538.25,168.2969 Q538.9844,169.4219 540.4063,169.4219 Q541.0781,169.4219 541.7031,169.1406 Q542.3281,168.8594 543,168.2344 L543,171.125 Z "/><text fill="#000000" font-family="Bitstream Vera Sans Mono" font-size="18" lengthAdjust="spacingAndGlyphs" textLength="99" x="555" y="171.2314">Extractor</text><!--MD5=[a804dd878b9ad2513b5909bc42a11ccb]
class extractor.JSONExtractor--><rect fill="#F8F8F8" filter="url(#f19q8t9w0ayjyh)" height="34" id="extractor.JSONExtractor" style="stroke: #383838; stroke-width: 1.5;" width="177" x="789.5" y="79"/><ellipse cx="805.5" cy="96" fill="#C2C2C2" rx="12" ry="12" style="stroke: #383838; stroke-width: 1.0;"/><path d="M808.5,102.125 Q807.8906,102.4375 807.2031,102.5938 Q806.5313,102.75 805.7813,102.75 Q803.125,102.75 801.7344,101 Q800.3438,99.25 800.3438,95.9531 Q800.3438,92.6406 801.7344,90.8906 Q803.125,89.1406 805.7813,89.1406 Q806.5313,89.1406 807.2188,89.2969 Q807.9063,89.4531 808.5,89.7656 L808.5,92.6563 Q807.8281,92.0469 807.2031,91.7656 Q806.5781,91.4688 805.9063,91.4688 Q804.4844,91.4688 803.75,92.6094 Q803.0313,93.7344 803.0313,95.9531 Q803.0313,98.1719 803.75,99.2969 Q804.4844,100.4219 805.9063,100.4219 Q806.5781,100.4219 807.2031,100.1406 Q807.8281,99.8594 808.5,99.2344 L808.5,102.125 Z "/><text fill="#000000" font-family="Bitstream Vera Sans Mono" font-size="18" lengthAdjust="spacingAndGlyphs" textLength="143" x="820.5" y="102.2314">JSONExtractor</text><!--MD5=[53e82bf17bad6aaa1ae057ceff09bc1f]
class extractor.JDBCExtractor--><rect fill="#F8F8F8" filter="url(#f19q8t9w0ayjyh)" height="34" id="extractor.JDBCExtractor" style="stroke: #383838; stroke-width: 1.5;" width="177" x="789.5" y="217"/><ellipse cx="805.5" cy="234" fill="#C2C2C2" rx="12" ry="12" style="stroke: #383838; stroke-width: 1.0;"/><path d="M808.5,240.125 Q807.8906,240.4375 807.2031,240.5938 Q806.5313,240.75 805.7813,240.75 Q803.125,240.75 801.7344,239 Q800.3438,237.25 800.3438,233.9531 Q800.3438,230.6406 801.7344,228.8906 Q803.125,227.1406 805.7813,227.1406 Q806.5313,227.1406 807.2188,227.2969 Q807.9063,227.4531 808.5,227.7656 L808.5,230.6563 Q807.8281,230.0469 807.2031,229.7656 Q806.5781,229.4688 805.9063,229.4688 Q804.4844,229.4688 803.75,230.6094 Q803.0313,231.7344 803.0313,233.9531 Q803.0313,236.1719 803.75,237.2969 Q804.4844,238.4219 805.9063,238.4219 Q806.5781,238.4219 807.2031,238.1406 Q807.8281,237.8594 808.5,237.2344 L808.5,240.125 Z "/><text fill="#000000" font-family="Bitstream Vera Sans Mono" font-size="18" lengthAdjust="spacingAndGlyphs" textLength="143" x="820.5" y="240.2314">JDBCExtractor</text><!--MD5=[40520d462a206087eff617234312a248]
class extractor.JDBCExtractorFullLoad--><rect fill="#F8F8F8" filter="url(#f19q8t9w0ayjyh)" height="34" id="extractor.JDBCExtractorFullLoad" style="stroke: #383838; stroke-width: 1.5;" width="265" x="745.5" y="148"/><ellipse cx="761.5" cy="165" fill="#C2C2C2" rx="12" ry="12" style="stroke: #383838; stroke-width: 1.0;"/><path d="M764.5,171.125 Q763.8906,171.4375 763.2031,171.5938 Q762.5313,171.75 761.7813,171.75 Q759.125,171.75 757.7344,170 Q756.3438,168.25 756.3438,164.9531 Q756.3438,161.6406 757.7344,159.8906 Q759.125,158.1406 761.7813,158.1406 Q762.5313,158.1406 763.2188,158.2969 Q763.9063,158.4531 764.5,158.7656 L764.5,161.6563 Q763.8281,161.0469 763.2031,160.7656 Q762.5781,160.4688 761.9063,160.4688 Q760.4844,160.4688 759.75,161.6094 Q759.0313,162.7344 759.0313,164.9531 Q759.0313,167.1719 759.75,168.2969 Q760.4844,169.4219 761.9063,169.4219 Q762.5781,169.4219 763.2031,169.1406 Q763.8281,168.8594 764.5,168.2344 L764.5,171.125 Z "/><text fill="#000000" font-family="Bitstream Vera Sans Mono" font-size="18" lengthAdjust="spacingAndGlyphs" textLength="231" x="776.5" y="171.2314">JDBCExtractorFullLoad</text><!--MD5=[573ef1b0847587e468a3420ac5c434b6]
class extractor.JDBCExtractorIncremental--><rect fill="#F8F8F8" filter="url(#f19q8t9w0ayjyh)" height="34" id="extractor.JDBCExtractorIncremental" style="stroke: #383838; stroke-width: 1.5;" width="298" x="729" y="286"/><ellipse cx="745" cy="303" fill="#C2C2C2" rx="12" ry="12" style="stroke: #383838; stroke-width: 1.0;"/><path d="M748,309.125 Q747.3906,309.4375 746.7031,309.5938 Q746.0313,309.75 745.2813,309.75 Q742.625,309.75 741.2344,308 Q739.8438,306.25 739.8438,302.9531 Q739.8438,299.6406 741.2344,297.8906 Q742.625,296.1406 745.2813,296.1406 Q746.0313,296.1406 746.7188,296.2969 Q747.4063,296.4531 748,296.7656 L748,299.6563 Q747.3281,299.0469 746.7031,298.7656 Q746.0781,298.4688 745.4063,298.4688 Q743.9844,298.4688 743.25,299.6094 Q742.5313,300.7344 742.5313,302.9531 Q742.5313,305.1719 743.25,306.2969 Q743.9844,307.4219 745.4063,307.4219 Q746.0781,307.4219 746.7031,307.1406 Q747.3281,306.8594 748,306.2344 L748,309.125 Z "/><text fill="#000000" font-family="Bitstream Vera Sans Mono" font-size="18" lengthAdjust="spacingAndGlyphs" textLength="264" x="760" y="309.2314">JDBCExtractorIncremental</text><!--MD5=[c7e00b139d48afdabb55b806d15beec6]
class transformer.Transformer--><rect fill="#F8F8F8" filter="url(#f19q8t9w0ayjyh)" height="34" id="transformer.Transformer" style="stroke: #383838; stroke-width: 1.5;" width="155" x="513" y="577"/><ellipse cx="529" cy="594" fill="#C2C2C2" rx="12" ry="12" style="stroke: #383838; stroke-width: 1.0;"/><path d="M532,600.125 Q531.3906,600.4375 530.7031,600.5938 Q530.0313,600.75 529.2813,600.75 Q526.625,600.75 525.2344,599 Q523.8438,597.25 523.8438,593.9531 Q523.8438,590.6406 525.2344,588.8906 Q526.625,587.1406 529.2813,587.1406 Q530.0313,587.1406 530.7188,587.2969 Q531.4063,587.4531 532,587.7656 L532,590.6563 Q531.3281,590.0469 530.7031,589.7656 Q530.0781,589.4688 529.4063,589.4688 Q527.9844,589.4688 527.25,590.6094 Q526.5313,591.7344 526.5313,593.9531 Q526.5313,596.1719 527.25,597.2969 Q527.9844,598.4219 529.4063,598.4219 Q530.0781,598.4219 530.7031,598.1406 Q531.3281,597.8594 532,597.2344 L532,600.125 Z "/><text fill="#000000" font-family="Bitstream Vera Sans Mono" font-size="18" lengthAdjust="spacingAndGlyphs" textLength="121" x="544" y="600.2314">Transformer</text><!--MD5=[6d6b27de8f145142793acc2ee742a682]
class transformer.Exploder--><rect fill="#F8F8F8" filter="url(#f19q8t9w0ayjyh)" height="34" id="transformer.Exploder" style="stroke: #383838; stroke-width: 1.5;" width="122" x="817" y="715"/><ellipse cx="833" cy="732" fill="#C2C2C2" rx="12" ry="12" style="stroke: #383838; stroke-width: 1.0;"/><path d="M836,738.125 Q835.3906,738.4375 834.7031,738.5938 Q834.0313,738.75 833.2813,738.75 Q830.625,738.75 829.2344,737 Q827.8438,735.25 827.8438,731.9531 Q827.8438,728.6406 829.2344,726.8906 Q830.625,725.1406 833.2813,725.1406 Q834.0313,725.1406 834.7188,725.2969 Q835.4063,725.4531 836,725.7656 L836,728.6563 Q835.3281,728.0469 834.7031,727.7656 Q834.0781,727.4688 833.4063,727.4688 Q831.9844,727.4688 831.25,728.6094 Q830.5313,729.7344 830.5313,731.9531 Q830.5313,734.1719 831.25,735.2969 Q831.9844,736.4219 833.4063,736.4219 Q834.0781,736.4219 834.7031,736.1406 Q835.3281,735.8594 836,735.2344 L836,738.125 Z "/><text fill="#000000" font-family="Bitstream Vera Sans Mono" font-size="18" lengthAdjust="spacingAndGlyphs" textLength="88" x="848" y="738.2314">Exploder</text><!--MD5=[ead5f4b08ed572583514afa5f5ddda28]
class transformer.Mapper--><rect fill="#F8F8F8" filter="url(#f19q8t9w0ayjyh)" height="34" id="transformer.Mapper" style="stroke: #383838; stroke-width: 1.5;" width="100" x="828" y="646"/><ellipse cx="844" cy="663" fill="#C2C2C2" rx="12" ry="12" style="stroke: #383838; stroke-width: 1.0;"/><path d="M847,669.125 Q846.3906,669.4375 845.7031,669.5938 Q845.0313,669.75 844.2813,669.75 Q841.625,669.75 840.2344,668 Q838.8438,666.25 838.8438,662.9531 Q838.8438,659.6406 840.2344,657.8906 Q841.625,656.1406 844.2813,656.1406 Q845.0313,656.1406 845.7188,656.2969 Q846.4063,656.4531 847,656.7656 L847,659.6563 Q846.3281,659.0469 845.7031,658.7656 Q845.0781,658.4688 844.4063,658.4688 Q842.9844,658.4688 842.25,659.6094 Q841.5313,660.7344 841.5313,662.9531 Q841.5313,665.1719 842.25,666.2969 Q842.9844,667.4219 844.4063,667.4219 Q845.0781,667.4219 845.7031,667.1406 Q846.3281,666.8594 847,666.2344 L847,669.125 Z "/><text fill="#000000" font-family="Bitstream Vera Sans Mono" font-size="18" lengthAdjust="spacingAndGlyphs" textLength="66" x="859" y="669.2314">Mapper</text><!--MD5=[24678b8a41039d52208224ab870eddbe]
class transformer.NewestByGroup--><rect fill="#F8F8F8" filter="url(#f19q8t9w0ayjyh)" height="34" id="transformer.NewestByGroup" style="stroke: #383838; stroke-width: 1.5;" width="177" x="789.5" y="577"/><ellipse cx="805.5" cy="594" fill="#C2C2C2" rx="12" ry="12" style="stroke: #383838; stroke-width: 1.0;"/><path d="M808.5,600.125 Q807.8906,600.4375 807.2031,600.5938 Q806.5313,600.75 805.7813,600.75 Q803.125,600.75 801.7344,599 Q800.3438,597.25 800.3438,593.9531 Q800.3438,590.6406 801.7344,588.8906 Q803.125,587.1406 805.7813,587.1406 Q806.5313,587.1406 807.2188,587.2969 Q807.9063,587.4531 808.5,587.7656 L808.5,590.6563 Q807.8281,590.0469 807.2031,589.7656 Q806.5781,589.4688 805.9063,589.4688 Q804.4844,589.4688 803.75,590.6094 Q803.0313,591.7344 803.0313,593.9531 Q803.0313,596.1719 803.75,597.2969 Q804.4844,598.4219 805.9063,598.4219 Q806.5781,598.4219 807.2031,598.1406 Q807.8281,597.8594 808.5,597.2344 L808.5,600.125 Z "/><text fill="#000000" font-family="Bitstream Vera Sans Mono" font-size="18" lengthAdjust="spacingAndGlyphs" textLength="143" x="820.5" y="600.2314">NewestByGroup</text><!--MD5=[1d9c73006190015773398be704fce40d]
class transformer.Sieve--><rect fill="#F8F8F8" filter="url(#f19q8t9w0ayjyh)" height="34" id="transformer.Sieve" style="stroke: #383838; stroke-width: 1.5;" width="89" x="833.5" y="508"/><ellipse cx="849.5" cy="525" fill="#C2C2C2" rx="12" ry="12" style="stroke: #383838; stroke-width: 1.0;"/><path d="M852.5,531.125 Q851.8906,531.4375 851.2031,531.5938 Q850.5313,531.75 849.7813,531.75 Q847.125,531.75 845.7344,530 Q844.3438,528.25 844.3438,524.9531 Q844.3438,521.6406 845.7344,519.8906 Q847.125,518.1406 849.7813,518.1406 Q850.5313,518.1406 851.2188,518.2969 Q851.9063,518.4531 852.5,518.7656 L852.5,521.6563 Q851.8281,521.0469 851.2031,520.7656 Q850.5781,520.4688 849.9063,520.4688 Q848.4844,520.4688 847.75,521.6094 Q847.0313,522.7344 847.0313,524.9531 Q847.0313,527.1719 847.75,528.2969 Q848.4844,529.4219 849.9063,529.4219 Q850.5781,529.4219 851.2031,529.1406 Q851.8281,528.8594 852.5,528.2344 L852.5,531.125 Z "/><text fill="#000000" font-family="Bitstream Vera Sans Mono" font-size="18" lengthAdjust="spacingAndGlyphs" textLength="55" x="864.5" y="531.2314">Sieve</text><!--MD5=[b609556ecda30cad2c62a7c5b7970c8c]
class transformer.ThresholdCleaner--><rect fill="#F8F8F8" filter="url(#f19q8t9w0ayjyh)" height="34" id="transformer.ThresholdCleaner" style="stroke: #383838; stroke-width: 1.5;" width="210" x="773" y="439"/><ellipse cx="789" cy="456" fill="#C2C2C2" rx="12" ry="12" style="stroke: #383838; stroke-width: 1.0;"/><path d="M792,462.125 Q791.3906,462.4375 790.7031,462.5938 Q790.0313,462.75 789.2813,462.75 Q786.625,462.75 785.2344,461 Q783.8438,459.25 783.8438,455.9531 Q783.8438,452.6406 785.2344,450.8906 Q786.625,449.1406 789.2813,449.1406 Q790.0313,449.1406 790.7188,449.2969 Q791.4063,449.4531 792,449.7656 L792,452.6563 Q791.3281,452.0469 790.7031,451.7656 Q790.0781,451.4688 789.4063,451.4688 Q787.9844,451.4688 787.25,452.6094 Q786.5313,453.7344 786.5313,455.9531 Q786.5313,458.1719 787.25,459.2969 Q787.9844,460.4219 789.4063,460.4219 Q790.0781,460.4219 790.7031,460.1406 Q791.3281,459.8594 792,459.2344 L792,462.125 Z "/><text fill="#000000" font-family="Bitstream Vera Sans Mono" font-size="18" lengthAdjust="spacingAndGlyphs" textLength="176" x="804" y="462.2314">ThresholdCleaner</text><!--MD5=[04dcba9d06bc851b8e7ac4e0b5468db1]
class loader.Loader--><rect fill="#F8F8F8" filter="url(#f19q8t9w0ayjyh)" height="34" id="loader.Loader" style="stroke: #383838; stroke-width: 1.5;" width="100" x="540.5" y="868"/><ellipse cx="556.5" cy="885" fill="#C2C2C2" rx="12" ry="12" style="stroke: #383838; stroke-width: 1.0;"/><path d="M559.5,891.125 Q558.8906,891.4375 558.2031,891.5938 Q557.5313,891.75 556.7813,891.75 Q554.125,891.75 552.7344,890 Q551.3438,888.25 551.3438,884.9531 Q551.3438,881.6406 552.7344,879.8906 Q554.125,878.1406 556.7813,878.1406 Q557.5313,878.1406 558.2188,878.2969 Q558.9063,878.4531 559.5,878.7656 L559.5,881.6563 Q558.8281,881.0469 558.2031,880.7656 Q557.5781,880.4688 556.9063,880.4688 Q555.4844,880.4688 554.75,881.6094 Q554.0313,882.7344 554.0313,884.9531 Q554.0313,887.1719 554.75,888.2969 Q555.4844,889.4219 556.9063,889.4219 Q557.5781,889.4219 558.2031,889.1406 Q558.8281,888.8594 559.5,888.2344 L559.5,891.125 Z "/><text fill="#000000" font-family="Bitstream Vera Sans Mono" font-size="18" lengthAdjust="spacingAndGlyphs" textLength="66" x="571.5" y="891.2314">Loader</text><!--MD5=[fb9180442ae1871686930600d8861094]
class loader.HiveLoader--><rect fill="#F8F8F8" filter="url(#f19q8t9w0ayjyh)" height="34" id="loader.HiveLoader" style="stroke: #383838; stroke-width: 1.5;" width="144" x="806" y="868"/><ellipse cx="822" cy="885" fill="#C2C2C2" rx="12" ry="12" style="stroke: #383838; stroke-width: 1.0;"/><path d="M825,891.125 Q824.3906,891.4375 823.7031,891.5938 Q823.0313,891.75 822.2813,891.75 Q819.625,891.75 818.2344,890 Q816.8438,888.25 816.8438,884.9531 Q816.8438,881.6406 818.2344,879.8906 Q819.625,878.1406 822.2813,878.1406 Q823.0313,878.1406 823.7188,878.2969 Q824.4063,878.4531 825,878.7656 L825,881.6563 Q824.3281,881.0469 823.7031,880.7656 Q823.0781,880.4688 822.4063,880.4688 Q820.9844,880.4688 820.25,881.6094 Q819.5313,882.7344 819.5313,884.9531 Q819.5313,887.1719 820.25,888.2969 Q820.9844,889.4219 822.4063,889.4219 Q823.0781,889.4219 823.7031,889.1406 Q824.3281,888.8594 825,888.2344 L825,891.125 Z "/><text fill="#000000" font-family="Bitstream Vera Sans Mono" font-size="18" lengthAdjust="spacingAndGlyphs" textLength="110" x="837" y="891.2314">HiveLoader</text><!--MD5=[c25a5faabfc45394d1abf340ae65b51c]
class pipeline.Pipeline--><rect fill="#F8F8F8" filter="url(#f19q8t9w0ayjyh)" height="34" id="pipeline.Pipeline" style="stroke: #383838; stroke-width: 1.5;" width="122" x="76.5" y="756"/><ellipse cx="92.5" cy="773" fill="#C2C2C2" rx="12" ry="12" style="stroke: #383838; stroke-width: 1.0;"/><path d="M95.5,779.125 Q94.8906,779.4375 94.2031,779.5938 Q93.5313,779.75 92.7813,779.75 Q90.125,779.75 88.7344,778 Q87.3438,776.25 87.3438,772.9531 Q87.3438,769.6406 88.7344,767.8906 Q90.125,766.1406 92.7813,766.1406 Q93.5313,766.1406 94.2188,766.2969 Q94.9063,766.4531 95.5,766.7656 L95.5,769.6563 Q94.8281,769.0469 94.2031,768.7656 Q93.5781,768.4688 92.9063,768.4688 Q91.4844,768.4688 90.75,769.6094 Q90.0313,770.7344 90.0313,772.9531 Q90.0313,775.1719 90.75,776.2969 Q91.4844,777.4219 92.9063,777.4219 Q93.5781,777.4219 94.2031,777.1406 Q94.8281,776.8594 95.5,776.2344 L95.5,779.125 Z "/><text fill="#000000" font-family="Bitstream Vera Sans Mono" font-size="18" lengthAdjust="spacingAndGlyphs" textLength="88" x="107.5" y="779.2314">Pipeline</text><!--MD5=[9a78d307970e325597da2a77481a5908]
class pipeline.PipelineFactory--><rect fill="#F8F8F8" filter="url(#f19q8t9w0ayjyh)" height="34" id="pipeline.PipelineFactory" style="stroke: #383838; stroke-width: 1.5;" width="199" x="38" y="847"/><ellipse cx="54" cy="864" fill="#C2C2C2" rx="12" ry="12" style="stroke: #383838; stroke-width: 1.0;"/><path d="M57,870.125 Q56.3906,870.4375 55.7031,870.5938 Q55.0313,870.75 54.2813,870.75 Q51.625,870.75 50.2344,869 Q48.8438,867.25 48.8438,863.9531 Q48.8438,860.6406 50.2344,858.8906 Q51.625,857.1406 54.2813,857.1406 Q55.0313,857.1406 55.7188,857.2969 Q56.4063,857.4531 57,857.7656 L57,860.6563 Q56.3281,860.0469 55.7031,859.7656 Q55.0781,859.4688 54.4063,859.4688 Q52.9844,859.4688 52.25,860.6094 Q51.5313,861.7344 51.5313,863.9531 Q51.5313,866.1719 52.25,867.2969 Q52.9844,868.4219 54.4063,868.4219 Q55.0781,868.4219 55.7031,868.1406 Q56.3281,867.8594 57,867.2344 L57,870.125 Z "/><text fill="#000000" font-family="Bitstream Vera Sans Mono" font-size="18" lengthAdjust="spacingAndGlyphs" textLength="165" x="69" y="870.2314">PipelineFactory</text><!--MD5=[ff155a5dfe0d342a67724a6b3d499fde]
reverse link extractor.Extractor to extractor.JSONExtractor--><path d="M676.64,143 C693.95,138.62 712.04,134.1 729,130 C752.45,124.32 778.04,118.36 801.25,113.04 " fill="none" id="extractor.Extractor&lt;-extractor.JSONExtractor" style="stroke: #383838; stroke-width: 1.0;"/><polygon fill="none" points="678.27,149.8,657.17,147.95,674.82,136.24,678.27,149.8" style="stroke: #383838; stroke-width: 1.0;"/><!--MD5=[78b0bfbb80eea96e2939411f4c9b8970]
reverse link extractor.Extractor to extractor.JDBCExtractor--><path d="M676.68,186.21 C693.99,190.47 712.07,194.91 729,199 C753.51,204.93 780.33,211.3 804.32,216.97 " fill="none" id="extractor.Extractor&lt;-extractor.JDBCExtractor" style="stroke: #383838; stroke-width: 1.0;"/><polygon fill="none" points="674.95,192.99,657.21,181.39,678.31,179.4,674.95,192.99" style="stroke: #383838; stroke-width: 1.0;"/><!--MD5=[ab15c728de0092aea3a8e8e09a5720a9]
reverse link extractor.JDBCExtractor to extractor.JDBCExtractorFullLoad--><path d="M878,196.61 C878,191.87 878,187.13 878,182.38 " fill="none" id="extractor.JDBCExtractor&lt;-extractor.JDBCExtractorFullLoad" style="stroke: #383838; stroke-width: 1.0;"/><polygon fill="none" points="885,196.75,878,216.75,871,196.75,885,196.75" style="stroke: #383838; stroke-width: 1.0;"/><!--MD5=[a1261d17a1db85c39aa6a3f5c6a7ebd2]
link extractor.JDBCExtractorIncremental to extractor.JDBCExtractor--><path d="M878,285.75 C878,281.01 878,276.26 878,271.52 " fill="none" id="extractor.JDBCExtractorIncremental-&gt;extractor.JDBCExtractor" style="stroke: #383838; stroke-width: 1.0;"/><polygon fill="none" points="871,271.38,878,251.38,885,271.38,871,271.38" style="stroke: #383838; stroke-width: 1.0;"/><!--MD5=[5ae5d9fa70bf2545034337347e8d45fa]
reverse link transformer.Transformer to transformer.Exploder--><path d="M677.32,623.98 C702.42,649.58 696.53,675.65 729,697 C754.92,714.05 788.23,722.82 816.68,727.32 " fill="none" id="transformer.Transformer&lt;-transformer.Exploder" style="stroke: #383838; stroke-width: 1.0;"/><polygon fill="none" points="672.62,629.18,661.61,611.08,681.51,618.36,672.62,629.18" style="stroke: #383838; stroke-width: 1.0;"/><!--MD5=[55613bd8b3eb99625ae57b9fd66e03dc]
reverse link transformer.Transformer to transformer.Mapper--><path d="M679.62,615.93 C696.02,619.97 713.03,624.14 729,628 C761.98,635.98 799.14,644.76 827.97,651.54 " fill="none" id="transformer.Transformer&lt;-transformer.Mapper" style="stroke: #383838; stroke-width: 1.0;"/><polygon fill="none" points="677.74,622.68,660.01,611.09,681.1,609.09,677.74,622.68" style="stroke: #383838; stroke-width: 1.0;"/><!--MD5=[7c88c6807237af4394c167b2a7b6d2cc]
reverse link transformer.Transformer to transformer.NewestByGroup--><path d="M688.38,594 C721.12,594 757.45,594 789.42,594 " fill="none" id="transformer.Transformer&lt;-transformer.NewestByGroup" style="stroke: #383838; stroke-width: 1.0;"/><polygon fill="none" points="688.01,601,668.01,594,688.01,587,688.01,601" style="stroke: #383838; stroke-width: 1.0;"/><!--MD5=[9e4b9abd55c4bc638fe706be9ba07a1f]
reverse link transformer.Transformer to transformer.Sieve--><path d="M676.64,572 C693.95,567.62 712.04,563.1 729,559 C763.98,550.53 803.73,541.43 833.22,534.77 " fill="none" id="transformer.Transformer&lt;-transformer.Sieve" style="stroke: #383838; stroke-width: 1.0;"/><polygon fill="none" points="678.27,578.8,657.17,576.95,674.82,565.24,678.27,578.8" style="stroke: #383838; stroke-width: 1.0;"/><!--MD5=[40219871995872e84292efd49e729567]
reverse link transformer.Transformer to transformer.ThresholdCleaner--><path d="M623.97,563.08 C650.31,539.66 689.43,508.47 729,490 C743.81,483.09 760.13,477.53 776.36,473.07 " fill="none" id="transformer.Transformer&lt;-transformer.ThresholdCleaner" style="stroke: #383838; stroke-width: 1.0;"/><polygon fill="none" points="628.46,568.46,608.99,576.8,619.01,558.13,628.46,568.46" style="stroke: #383838; stroke-width: 1.0;"/><!--MD5=[2db57ecf5b3f4e3eb21fcf2c99b8c2a2]
reverse link loader.Loader to loader.HiveLoader--><path d="M660.72,885 C704.71,885 761.5,885 805.86,885 " fill="none" id="loader.Loader&lt;-loader.HiveLoader" style="stroke: #383838; stroke-width: 1.0;"/><polygon fill="none" points="660.58,892,640.58,885,660.58,878,660.58,892" style="stroke: #383838; stroke-width: 1.0;"/><!--MD5=[42a807e858a7d2376c08ab0f25d2930b]
reverse link pipeline.Pipeline to extractor--><path d="M161.1,745.66 C212.69,684.1 344.64,531.54 473,423 C496.51,403.12 525.1,383.6725 548.0738,369.0475 C553.8172,365.3913 559.2096,362.0364 564.0839,359.0516 C566.521,357.5591 568.8286,356.1592 570.9858,354.8604 C572.0644,354.2109 573.1054,353.5868 574.1061,352.989 C574.6065,352.6901 575.0968,352.3977 575.5768,352.1121 " fill="none" id="pipeline.Pipeline&lt;-extractor" style="stroke: #383838; stroke-width: 1.0;"/><polygon fill="#FFFFFF" points="152.69,755.73,159.6049,753.6843,160.3761,746.5146,153.4612,748.5603,152.69,755.73" style="stroke: #383838; stroke-width: 1.0;"/><text fill="#000000" font-family="Bitstream Vera Sans Mono" font-size="18" lengthAdjust="spacingAndGlyphs" textLength="154" x="281" y="427.708">has 1 instance</text><polygon fill="#000000" points="438,418.4766,448,423.4766,438,428.4766,438,418.4766" style="stroke: #000000; stroke-width: 1.0;"/><!--MD5=[fa0f2928a572c918af6e547491f713a9]
reverse link pipeline.Pipeline to transformer--><path d="M212.23,773 C275.65,773 368.96,773 446.9125,773 C456.6566,773 466.1607,773 475.3364,773 C479.9243,773 484.4301,773 488.8428,773 " fill="none" id="pipeline.Pipeline&lt;-transformer" style="stroke: #383838; stroke-width: 1.0;"/><polygon fill="#FFFFFF" points="198.86,773,204.86,777,210.86,773,204.86,769,198.86,773" style="stroke: #383838; stroke-width: 1.0;"/><text fill="#000000" font-family="Bitstream Vera Sans Mono" font-size="18" lengthAdjust="spacingAndGlyphs" textLength="176" x="270" y="768.708">has 1+ instances</text><polygon fill="#000000" points="449,759.4766,459,764.4766,449,769.4766,449,759.4766" style="stroke: #000000; stroke-width: 1.0;"/><!--MD5=[beb6e373af6a7762f19f90df84caea9f]
reverse link pipeline.Pipeline to loader--><path d="M188.43,795.46 C274.46,834.03 444.2,909.55 473,918 C485.3875,921.635 498.7338,924.6319 511.8166,927.0845 C512.6342,927.2378 513.4509,927.389 514.2662,927.538 C514.6739,927.6126 515.0812,927.6866 515.4882,927.7601 C515.6916,927.7968 515.895,927.8334 516.0983,927.8699 " fill="none" id="pipeline.Pipeline&lt;-loader" style="stroke: #383838; stroke-width: 1.0;"/><polygon fill="#FFFFFF" points="176.37,790.05,180.2093,796.1541,187.3205,794.9579,183.4812,788.8538,176.37,790.05" style="stroke: #383838; stroke-width: 1.0;"/><text fill="#000000" font-family="Bitstream Vera Sans Mono" font-size="18" lengthAdjust="spacingAndGlyphs" textLength="154" x="281" y="828.708">has 1 instance</text><polygon fill="#000000" points="438,819.4766,448,824.4766,438,829.4766,438,819.4766" style="stroke: #000000; stroke-width: 1.0;"/><!--MD5=[753e235cc051301f4b461eaddfe076e6]
link pipeline.PipelineFactory to pipeline.Pipeline--><path d="M137.5,846.88 C137.5,832.27 137.5,811.14 137.5,795.22 " fill="none" id="pipeline.PipelineFactory-&gt;pipeline.Pipeline" style="stroke: #383838; stroke-width: 1.0; stroke-dasharray: 7.0,7.0;"/><polygon fill="#383838" points="137.5,790.04,133.5,799.04,137.5,795.04,141.5,799.04,137.5,790.04" style="stroke: #383838; stroke-width: 1.0;"/><text fill="#000000" font-family="Bitstream Vera Sans Mono" font-size="18" lengthAdjust="spacingAndGlyphs" textLength="77" x="85" y="825.208">creates</text><!--MD5=[6a547bb32933af26a87fca7b5f1e1f3f]
@startuml

skinparam monochrome true
skinparam defaultFontname Bitstream Vera Sans Mono
skinparam defaultFontSize 18

left to right direction
hide empty members

  namespace extractor {
      
      class Extractor {
      }
      Extractor <|- - JSONExtractor
      class JSONExtractor{
      }
      Extractor <|- - JDBCExtractor
      class JDBCExtractor{
      }
      JDBCExtractor <|- JDBCExtractorFullLoad
      class JDBCExtractorFullLoad {
      }
      JDBCExtractorIncremental -|> JDBCExtractor
      class JDBCExtractorIncremental {
      }

  }
  namespace transformer{
    
    class Transformer
    Transformer <|- - Exploder
    class Exploder
    Transformer <|- - Mapper
    class Mapper
    Transformer <|- - NewestByGroup
    class NewestByGroup
    Transformer <|- - Sieve
    class Sieve
    Transformer <|- - ThresholdCleaner
    class ThresholdCleaner

  }
  namespace loader {
    
    class Loader
    Loader <|- - HiveLoader
    class HiveLoader
  }
  namespace pipeline {
    
    class Pipeline 
    Pipeline o- - extractor : has 1 instance >
    Pipeline o- - transformer : has 1+ instances >
    Pipeline o- - loader : has 1 instance >

    class PipelineFactory
    PipelineFactory .> Pipeline : "creates"
  }

skinparam ClassRelationFontSize 30

@enduml

PlantUML version 1.2020.07(Sun Apr 19 13:42:40 CEST 2020)
(GPL source distribution)
Java Runtime: OpenJDK Runtime Environment
JVM: OpenJDK 64-Bit Server VM
Java Version: 1.8.0_242-b08
Operating System: Linux
Default Encoding: UTF-8
Language: en
Country: US
--></g></svg>