<?xml version="1.0" encoding="UTF-8" standalone="no"?><svg xmlns="http://www.w3.org/2000/svg" xmlns:xlink="http://www.w3.org/1999/xlink" contentScriptType="application/ecmascript" contentStyleType="text/css" height="717px" preserveAspectRatio="none" style="width:616px;height:717px;" version="1.1" viewBox="0 0 616 717" width="616px" zoomAndPan="magnify"><defs><filter height="300%" id="f6y1hbgqpgcgj" width="300%" x="-1" y="-1"><feGaussianBlur result="blurOut" stdDeviation="2.0"/><feColorMatrix in="blurOut" result="blurOut2" type="matrix" values="0 0 0 0 0 0 0 0 0 0 0 0 0 0 0 0 0 0 .4 0"/><feOffset dx="4.0" dy="4.0" in="blurOut2" result="blurOut3"/><feBlend in="SourceGraphic" in2="blurOut3" mode="normal"/></filter></defs><g><!--MD5=[6328af41db0f7dbb733c9192827ed26b]
cluster pipeline--><polygon fill="#FFFFFF" filter="url(#f6y1hbgqpgcgj)" points="22,24,116,24,123,50.9531,594,50.9531,594,705,22,705,22,24" style="stroke: #000000; stroke-width: 1.5;"/><line style="stroke: #000000; stroke-width: 1.5;" x1="22" x2="123" y1="50.9531" y2="50.9531"/><text fill="#000000" font-family="Bitstream Vera Sans Mono" font-size="18" font-weight="bold" lengthAdjust="spacingAndGlyphs" textLength="88" x="26" y="42.708">pipeline</text><!--MD5=[c25a5faabfc45394d1abf340ae65b51c]
class pipeline.Pipeline--><rect fill="#F8F8F8" filter="url(#f6y1hbgqpgcgj)" height="410.2031" id="pipeline.Pipeline" style="stroke: #383838; stroke-width: 1.5;" width="518" x="49" y="279"/><ellipse cx="259.5" cy="296" fill="#C2C2C2" rx="12" ry="12" style="stroke: #383838; stroke-width: 1.0;"/><path d="M262.5,302.125 Q261.8906,302.4375 261.2031,302.5938 Q260.5313,302.75 259.7813,302.75 Q257.125,302.75 255.7344,301 Q254.3438,299.25 254.3438,295.9531 Q254.3438,292.6406 255.7344,290.8906 Q257.125,289.1406 259.7813,289.1406 Q260.5313,289.1406 261.2188,289.2969 Q261.9063,289.4531 262.5,289.7656 L262.5,292.6563 Q261.8281,292.0469 261.2031,291.7656 Q260.5781,291.4688 259.9063,291.4688 Q258.4844,291.4688 257.75,292.6094 Q257.0313,293.7344 257.0313,295.9531 Q257.0313,298.1719 257.75,299.2969 Q258.4844,300.4219 259.9063,300.4219 Q260.5781,300.4219 261.2031,300.1406 Q261.8281,299.8594 262.5,299.2344 L262.5,302.125 Z "/><text fill="#000000" font-family="Bitstream Vera Sans Mono" font-size="18" lengthAdjust="spacingAndGlyphs" textLength="88" x="281.5" y="302.2314">Pipeline</text><line style="stroke: #383838; stroke-width: 1.5;" x1="50" x2="566" y1="313" y2="313"/><text fill="#000000" font-family="Bitstream Vera Sans Mono" font-size="18" lengthAdjust="spacingAndGlyphs" textLength="297" x="55" y="333.708">input_df : DataFrame = None</text><text fill="#000000" font-family="Bitstream Vera Sans Mono" font-size="18" lengthAdjust="spacingAndGlyphs" textLength="308" x="55" y="354.6611">bypass_loader : bool = False</text><text fill="#000000" font-family="Bitstream Vera Sans Mono" font-size="18" lengthAdjust="spacingAndGlyphs" textLength="308" x="55" y="400.5674">extractor : Extractor = None</text><text fill="#000000" font-family="Bitstream Vera Sans Mono" font-size="18" lengthAdjust="spacingAndGlyphs" textLength="253" x="55" y="421.5205">bypass_extractor : bool</text><text fill="#000000" font-family="Bitstream Vera Sans Mono" font-size="18" lengthAdjust="spacingAndGlyphs" textLength="363" x="55" y="442.4736">transformers : [Transformer] = []</text><text fill="#000000" font-family="Bitstream Vera Sans Mono" font-size="18" lengthAdjust="spacingAndGlyphs" textLength="242" x="55" y="463.4268">loader : Loader = None</text><text fill="#000000" font-family="Bitstream Vera Sans Mono" font-size="18" lengthAdjust="spacingAndGlyphs" textLength="110" x="55" y="484.3799">name : str</text><text fill="#000000" font-family="Bitstream Vera Sans Mono" font-size="18" lengthAdjust="spacingAndGlyphs" textLength="253" x="55" y="505.333">logger : logging.logger</text><line style="stroke: #383838; stroke-width: 1.0; stroke-dasharray: 1.0,2.0;" x1="50" x2="269.5" y1="373.3828" y2="373.3828"/><text fill="#000000" font-family="Bitstream Vera Sans Mono" font-size="18" lengthAdjust="spacingAndGlyphs" textLength="77" x="269.5" y="379.1143">derived</text><line style="stroke: #383838; stroke-width: 1.0; stroke-dasharray: 1.0,2.0;" x1="346.5" x2="566" y1="373.3828" y2="373.3828"/><line style="stroke: #383838; stroke-width: 1.5;" x1="50" x2="566" y1="513.5781" y2="513.5781"/><text fill="#000000" font-family="Bitstream Vera Sans Mono" font-size="18" lengthAdjust="spacingAndGlyphs" textLength="99" x="55" y="534.2861">execute()</text><text fill="#000000" font-family="Bitstream Vera Sans Mono" font-size="18" lengthAdjust="spacingAndGlyphs" textLength="99" x="55" y="555.2393">extract()</text><text fill="#000000" font-family="Bitstream Vera Sans Mono" font-size="18" lengthAdjust="spacingAndGlyphs" textLength="341" x="55" y="576.1924">transform(input_df : DataFrame)</text><text fill="#000000" font-family="Bitstream Vera Sans Mono" font-size="18" lengthAdjust="spacingAndGlyphs" textLength="286" x="55" y="597.1455">load(input_df : DataFrame)</text><text fill="#000000" font-family="Bitstream Vera Sans Mono" font-size="18" lengthAdjust="spacingAndGlyphs" textLength="396" x="55" y="618.0986">set_extractor(extractor : Extractor)</text><text fill="#000000" font-family="Bitstream Vera Sans Mono" font-size="18" lengthAdjust="spacingAndGlyphs" textLength="506" x="55" y="639.0518">add_transformers(transformers : [Transformer])</text><text fill="#000000" font-family="Bitstream Vera Sans Mono" font-size="18" lengthAdjust="spacingAndGlyphs" textLength="220" x="55" y="660.0049">clear_transformers()</text><text fill="#000000" font-family="Bitstream Vera Sans Mono" font-size="18" lengthAdjust="spacingAndGlyphs" textLength="297" x="55" y="680.958">set_loader(loader : Loader)</text><!--MD5=[9a78d307970e325597da2a77481a5908]
class pipeline.PipelineFactory--><rect fill="#F8F8F8" filter="url(#f6y1hbgqpgcgj)" height="133.8125" id="pipeline.PipelineFactory" style="stroke: #383838; stroke-width: 1.5;" width="540" x="38" y="63"/><ellipse cx="221" cy="80" fill="#C2C2C2" rx="12" ry="12" style="stroke: #383838; stroke-width: 1.0;"/><path d="M224,86.125 Q223.3906,86.4375 222.7031,86.5938 Q222.0313,86.75 221.2813,86.75 Q218.625,86.75 217.2344,85 Q215.8438,83.25 215.8438,79.9531 Q215.8438,76.6406 217.2344,74.8906 Q218.625,73.1406 221.2813,73.1406 Q222.0313,73.1406 222.7188,73.2969 Q223.4063,73.4531 224,73.7656 L224,76.6563 Q223.3281,76.0469 222.7031,75.7656 Q222.0781,75.4688 221.4063,75.4688 Q219.9844,75.4688 219.25,76.6094 Q218.5313,77.7344 218.5313,79.9531 Q218.5313,82.1719 219.25,83.2969 Q219.9844,84.4219 221.4063,84.4219 Q222.0781,84.4219 222.7031,84.1406 Q223.3281,83.8594 224,83.2344 L224,86.125 Z "/><text fill="#000000" font-family="Bitstream Vera Sans Mono" font-size="18" lengthAdjust="spacingAndGlyphs" textLength="165" x="243" y="86.2314">PipelineFactory</text><line style="stroke: #383838; stroke-width: 1.5;" x1="39" x2="577" y1="97" y2="97"/><text fill="#000000" font-family="Bitstream Vera Sans Mono" font-size="18" lengthAdjust="spacingAndGlyphs" textLength="528" x="44" y="117.708">url : str = "http://localhost:5000/pipeline/get"</text><line style="stroke: #383838; stroke-width: 1.5;" x1="39" x2="577" y1="125.9531" y2="125.9531"/><text fill="#000000" font-family="Bitstream Vera Sans Mono" font-size="18" lengthAdjust="spacingAndGlyphs" textLength="363" x="44" y="146.6611">execute(context_variables : dict)</text><text fill="#000000" font-family="Bitstream Vera Sans Mono" font-size="18" lengthAdjust="spacingAndGlyphs" textLength="418" x="44" y="167.6143">get_metadata(context_variables : dict)</text><text fill="#000000" font-family="Bitstream Vera Sans Mono" font-size="18" lengthAdjust="spacingAndGlyphs" textLength="418" x="44" y="188.5674">get_pipeline(context_variables : dict)</text><!--MD5=[753e235cc051301f4b461eaddfe076e6]
link pipeline.PipelineFactory to pipeline.Pipeline--><path d="M308,197.21 C308,219.71 308,246.19 308,273.8 " fill="none" id="pipeline.PipelineFactory-&gt;pipeline.Pipeline" style="stroke: #383838; stroke-width: 1.0; stroke-dasharray: 7.0,7.0;"/><polygon fill="#383838" points="308,278.97,312,269.97,308,273.97,304,269.97,308,278.97" style="stroke: #383838; stroke-width: 1.0;"/><text fill="#000000" font-family="Bitstream Vera Sans Mono" font-size="18" lengthAdjust="spacingAndGlyphs" textLength="77" x="309" y="244.708">creates</text><!--MD5=[a8d0e14b0257c7a0740722df03696752]
@startuml

skinparam monochrome true
skinparam defaultFontname Bitstream Vera Sans Mono
skinparam defaultFontSize 18



  namespace pipeline {

    class Pipeline {
      input_df : DataFrame = None
      bypass_loader : bool = False
      .. derived ..
      extractor : Extractor = None
      bypass_extractor : bool
      transformers : [Transformer] = []
      loader : Loader = None
      name : str
      logger : logging.logger
      __
      execute()
      extract()
      transform(input_df : DataFrame)
      load(input_df : DataFrame)
      set_extractor(extractor : Extractor)
      add_transformers(transformers : [Transformer])
      clear_transformers()
      set_loader(loader : Loader)
    }

    class PipelineFactory {
      url : str = "http://localhost:5000/pipeline/get"
      __
      execute(context_variables : dict)
      get_metadata(context_variables : dict)
      get_pipeline(context_variables : dict)
    }

    PipelineFactory ..> Pipeline : "creates"

 @enduml

PlantUML version 1.2020.07(Sun Apr 19 13:42:40 CEST 2020)
(GPL source distribution)
Java Runtime: OpenJDK Runtime Environment
JVM: OpenJDK 64-Bit Server VM
Java Version: 1.8.0_242-b08
Operating System: Linux
Default Encoding: UTF-8
Language: en
Country: US
--></g></svg>