<?xml version="1.0" encoding="UTF-8" standalone="no"?><svg xmlns="http://www.w3.org/2000/svg" xmlns:xlink="http://www.w3.org/1999/xlink" contentScriptType="application/ecmascript" contentStyleType="text/css" height="883px" preserveAspectRatio="none" style="width:1096px;height:883px;" version="1.1" viewBox="0 0 1096 883" width="1096px" zoomAndPan="magnify"><defs><filter height="300%" id="f13eq71p1paygx" width="300%" x="-1" y="-1"><feGaussianBlur result="blurOut" stdDeviation="2.0"/><feColorMatrix in="blurOut" result="blurOut2" type="matrix" values="0 0 0 0 0 0 0 0 0 0 0 0 0 0 0 0 0 0 .4 0"/><feOffset dx="4.0" dy="4.0" in="blurOut2" result="blurOut3"/><feBlend in="SourceGraphic" in2="blurOut3" mode="normal"/></filter></defs><g><!--MD5=[60057987766a1f2f00616574102b14d3]
cluster transformer--><polygon fill="#FFFFFF" filter="url(#f13eq71p1paygx)" points="22,24,149,24,156,50.9531,1074,50.9531,1074,871,22,871,22,24" style="stroke: #000000; stroke-width: 1.5;"/><line style="stroke: #000000; stroke-width: 1.5;" x1="22" x2="156" y1="50.9531" y2="50.9531"/><text fill="#000000" font-family="Bitstream Vera Sans Mono" font-size="18" font-weight="bold" lengthAdjust="spacingAndGlyphs" textLength="121" x="26" y="42.708">transformer</text><!--MD5=[c7e00b139d48afdabb55b806d15beec6]
class transformer.Transformer--><rect fill="#F8F8F8" filter="url(#f13eq71p1paygx)" height="137.8125" id="transformer.Transformer" style="stroke: #383838; stroke-width: 1.5;" width="353" x="38" y="305"/><ellipse cx="149.5" cy="322" fill="#C2C2C2" rx="12" ry="12" style="stroke: #383838; stroke-width: 1.0;"/><path d="M152.5,328.125 Q151.8906,328.4375 151.2031,328.5938 Q150.5313,328.75 149.7813,328.75 Q147.125,328.75 145.7344,327 Q144.3438,325.25 144.3438,321.9531 Q144.3438,318.6406 145.7344,316.8906 Q147.125,315.1406 149.7813,315.1406 Q150.5313,315.1406 151.2188,315.2969 Q151.9063,315.4531 152.5,315.7656 L152.5,318.6563 Q151.8281,318.0469 151.2031,317.7656 Q150.5781,317.4688 149.9063,317.4688 Q148.4844,317.4688 147.75,318.6094 Q147.0313,319.7344 147.0313,321.9531 Q147.0313,324.1719 147.75,325.2969 Q148.4844,326.4219 149.9063,326.4219 Q150.5781,326.4219 151.2031,326.1406 Q151.8281,325.8594 152.5,325.2344 L152.5,328.125 Z "/><text fill="#000000" font-family="Bitstream Vera Sans Mono" font-size="18" lengthAdjust="spacingAndGlyphs" textLength="121" x="171.5" y="328.2314">Transformer</text><line style="stroke: #383838; stroke-width: 1.5;" x1="39" x2="390" y1="339" y2="339"/><text fill="#000000" font-family="Bitstream Vera Sans Mono" font-size="18" lengthAdjust="spacingAndGlyphs" textLength="110" x="44" y="384.6611">name : str</text><text fill="#000000" font-family="Bitstream Vera Sans Mono" font-size="18" lengthAdjust="spacingAndGlyphs" textLength="253" x="44" y="405.6143">logger : logging.logger</text><line style="stroke: #383838; stroke-width: 1.0; stroke-dasharray: 1.0,2.0;" x1="39" x2="176" y1="357.4766" y2="357.4766"/><text fill="#000000" font-family="Bitstream Vera Sans Mono" font-size="18" lengthAdjust="spacingAndGlyphs" textLength="77" x="176" y="363.208">derived</text><line style="stroke: #383838; stroke-width: 1.0; stroke-dasharray: 1.0,2.0;" x1="253" x2="390" y1="357.4766" y2="357.4766"/><line style="stroke: #383838; stroke-width: 1.5;" x1="39" x2="390" y1="413.8594" y2="413.8594"/><text fill="#000000" font-family="Bitstream Vera Sans Mono" font-size="18" lengthAdjust="spacingAndGlyphs" textLength="341" x="44" y="434.5674">transform(input_df : DataFrame)</text><!--MD5=[ead5f4b08ed572583514afa5f5ddda28]
class transformer.Mapper--><rect fill="#F8F8F8" filter="url(#f13eq71p1paygx)" height="91.9063" id="transformer.Mapper" style="stroke: #383838; stroke-width: 1.5;" width="353" x="578.5" y="763"/><ellipse cx="717.5" cy="780" fill="#C2C2C2" rx="12" ry="12" style="stroke: #383838; stroke-width: 1.0;"/><path d="M720.5,786.125 Q719.8906,786.4375 719.2031,786.5938 Q718.5313,786.75 717.7813,786.75 Q715.125,786.75 713.7344,785 Q712.3438,783.25 712.3438,779.9531 Q712.3438,776.6406 713.7344,774.8906 Q715.125,773.1406 717.7813,773.1406 Q718.5313,773.1406 719.2188,773.2969 Q719.9063,773.4531 720.5,773.7656 L720.5,776.6563 Q719.8281,776.0469 719.2031,775.7656 Q718.5781,775.4688 717.9063,775.4688 Q716.4844,775.4688 715.75,776.6094 Q715.0313,777.7344 715.0313,779.9531 Q715.0313,782.1719 715.75,783.2969 Q716.4844,784.4219 717.9063,784.4219 Q718.5781,784.4219 719.2031,784.1406 Q719.8281,783.8594 720.5,783.2344 L720.5,786.125 Z "/><text fill="#000000" font-family="Bitstream Vera Sans Mono" font-size="18" lengthAdjust="spacingAndGlyphs" textLength="66" x="739.5" y="786.2314">Mapper</text><line style="stroke: #383838; stroke-width: 1.5;" x1="579.5" x2="930.5" y1="797" y2="797"/><text fill="#000000" font-family="Bitstream Vera Sans Mono" font-size="18" lengthAdjust="spacingAndGlyphs" textLength="154" x="584.5" y="817.708">mapping : list</text><line style="stroke: #383838; stroke-width: 1.5;" x1="579.5" x2="930.5" y1="825.9531" y2="825.9531"/><text fill="#000000" font-family="Bitstream Vera Sans Mono" font-size="18" lengthAdjust="spacingAndGlyphs" textLength="341" x="584.5" y="846.6611">transform(input_df : DataFrame)</text><!--MD5=[6d6b27de8f145142793acc2ee742a682]
class transformer.Exploder--><rect fill="#F8F8F8" filter="url(#f13eq71p1paygx)" height="112.8594" id="transformer.Exploder" style="stroke: #383838; stroke-width: 1.5;" width="419" x="545.5" y="465.5"/><ellipse cx="706.5" cy="482.5" fill="#C2C2C2" rx="12" ry="12" style="stroke: #383838; stroke-width: 1.0;"/><path d="M709.5,488.625 Q708.8906,488.9375 708.2031,489.0938 Q707.5313,489.25 706.7813,489.25 Q704.125,489.25 702.7344,487.5 Q701.3438,485.75 701.3438,482.4531 Q701.3438,479.1406 702.7344,477.3906 Q704.125,475.6406 706.7813,475.6406 Q707.5313,475.6406 708.2188,475.7969 Q708.9063,475.9531 709.5,476.2656 L709.5,479.1563 Q708.8281,478.5469 708.2031,478.2656 Q707.5781,477.9688 706.9063,477.9688 Q705.4844,477.9688 704.75,479.1094 Q704.0313,480.2344 704.0313,482.4531 Q704.0313,484.6719 704.75,485.7969 Q705.4844,486.9219 706.9063,486.9219 Q707.5781,486.9219 708.2031,486.6406 Q708.8281,486.3594 709.5,485.7344 L709.5,488.625 Z "/><text fill="#000000" font-family="Bitstream Vera Sans Mono" font-size="18" lengthAdjust="spacingAndGlyphs" textLength="88" x="728.5" y="488.7314">Exploder</text><line style="stroke: #383838; stroke-width: 1.5;" x1="546.5" x2="963.5" y1="499.5" y2="499.5"/><text fill="#000000" font-family="Bitstream Vera Sans Mono" font-size="18" lengthAdjust="spacingAndGlyphs" textLength="407" x="551.5" y="520.208">exploded_elem_name : str = "included"</text><text fill="#000000" font-family="Bitstream Vera Sans Mono" font-size="18" lengthAdjust="spacingAndGlyphs" textLength="308" x="551.5" y="541.1611">path_to_array : str = "elem"</text><line style="stroke: #383838; stroke-width: 1.5;" x1="546.5" x2="963.5" y1="549.4063" y2="549.4063"/><text fill="#000000" font-family="Bitstream Vera Sans Mono" font-size="18" lengthAdjust="spacingAndGlyphs" textLength="341" x="551.5" y="570.1143">transform(input_df : DataFrame)</text><!--MD5=[24678b8a41039d52208224ab870eddbe]
class transformer.NewestByGroup--><rect fill="#F8F8F8" filter="url(#f13eq71p1paygx)" height="112.8594" id="transformer.NewestByGroup" style="stroke: #383838; stroke-width: 1.5;" width="518" x="496" y="317.5"/><ellipse cx="679" cy="334.5" fill="#C2C2C2" rx="12" ry="12" style="stroke: #383838; stroke-width: 1.0;"/><path d="M682,340.625 Q681.3906,340.9375 680.7031,341.0938 Q680.0313,341.25 679.2813,341.25 Q676.625,341.25 675.2344,339.5 Q673.8438,337.75 673.8438,334.4531 Q673.8438,331.1406 675.2344,329.3906 Q676.625,327.6406 679.2813,327.6406 Q680.0313,327.6406 680.7188,327.7969 Q681.4063,327.9531 682,328.2656 L682,331.1563 Q681.3281,330.5469 680.7031,330.2656 Q680.0781,329.9688 679.4063,329.9688 Q677.9844,329.9688 677.25,331.1094 Q676.5313,332.2344 676.5313,334.4531 Q676.5313,336.6719 677.25,337.7969 Q677.9844,338.9219 679.4063,338.9219 Q680.0781,338.9219 680.7031,338.6406 Q681.3281,338.3594 682,337.7344 L682,340.625 Z "/><text fill="#000000" font-family="Bitstream Vera Sans Mono" font-size="18" lengthAdjust="spacingAndGlyphs" textLength="143" x="701" y="340.7314">NewestByGroup</text><line style="stroke: #383838; stroke-width: 1.5;" x1="497" x2="1013" y1="351.5" y2="351.5"/><text fill="#000000" font-family="Bitstream Vera Sans Mono" font-size="18" lengthAdjust="spacingAndGlyphs" textLength="264" x="502" y="372.208">group_by : list = ["id"]</text><text fill="#000000" font-family="Bitstream Vera Sans Mono" font-size="18" lengthAdjust="spacingAndGlyphs" textLength="506" x="502" y="393.1611">order_by : list = ["updated_at", "deleted_at"]</text><line style="stroke: #383838; stroke-width: 1.5;" x1="497" x2="1013" y1="401.4063" y2="401.4063"/><text fill="#000000" font-family="Bitstream Vera Sans Mono" font-size="18" lengthAdjust="spacingAndGlyphs" textLength="341" x="502" y="422.1143">transform(input_df : DataFrame)</text><!--MD5=[1d9c73006190015773398be704fce40d]
class transformer.Sieve--><rect fill="#F8F8F8" filter="url(#f13eq71p1paygx)" height="91.9063" id="transformer.Sieve" style="stroke: #383838; stroke-width: 1.5;" width="353" x="578.5" y="190"/><ellipse cx="723" cy="207" fill="#C2C2C2" rx="12" ry="12" style="stroke: #383838; stroke-width: 1.0;"/><path d="M726,213.125 Q725.3906,213.4375 724.7031,213.5938 Q724.0313,213.75 723.2813,213.75 Q720.625,213.75 719.2344,212 Q717.8438,210.25 717.8438,206.9531 Q717.8438,203.6406 719.2344,201.8906 Q720.625,200.1406 723.2813,200.1406 Q724.0313,200.1406 724.7188,200.2969 Q725.4063,200.4531 726,200.7656 L726,203.6563 Q725.3281,203.0469 724.7031,202.7656 Q724.0781,202.4688 723.4063,202.4688 Q721.9844,202.4688 721.25,203.6094 Q720.5313,204.7344 720.5313,206.9531 Q720.5313,209.1719 721.25,210.2969 Q721.9844,211.4219 723.4063,211.4219 Q724.0781,211.4219 724.7031,211.1406 Q725.3281,210.8594 726,210.2344 L726,213.125 Z "/><text fill="#000000" font-family="Bitstream Vera Sans Mono" font-size="18" lengthAdjust="spacingAndGlyphs" textLength="55" x="745" y="213.2314">Sieve</text><line style="stroke: #383838; stroke-width: 1.5;" x1="579.5" x2="930.5" y1="224" y2="224"/><text fill="#000000" font-family="Bitstream Vera Sans Mono" font-size="18" lengthAdjust="spacingAndGlyphs" textLength="253" x="584.5" y="244.708">filter_expression : str</text><line style="stroke: #383838; stroke-width: 1.5;" x1="579.5" x2="930.5" y1="252.9531" y2="252.9531"/><text fill="#000000" font-family="Bitstream Vera Sans Mono" font-size="18" lengthAdjust="spacingAndGlyphs" textLength="341" x="584.5" y="273.6611">transform(input_df : DataFrame)</text><!--MD5=[b609556ecda30cad2c62a7c5b7970c8c]
class transformer.ThresholdCleaner--><rect fill="#F8F8F8" filter="url(#f13eq71p1paygx)" height="91.9063" id="transformer.ThresholdCleaner" style="stroke: #383838; stroke-width: 1.5;" width="353" x="578.5" y="63"/><ellipse cx="662.5" cy="80" fill="#C2C2C2" rx="12" ry="12" style="stroke: #383838; stroke-width: 1.0;"/><path d="M665.5,86.125 Q664.8906,86.4375 664.2031,86.5938 Q663.5313,86.75 662.7813,86.75 Q660.125,86.75 658.7344,85 Q657.3438,83.25 657.3438,79.9531 Q657.3438,76.6406 658.7344,74.8906 Q660.125,73.1406 662.7813,73.1406 Q663.5313,73.1406 664.2188,73.2969 Q664.9063,73.4531 665.5,73.7656 L665.5,76.6563 Q664.8281,76.0469 664.2031,75.7656 Q663.5781,75.4688 662.9063,75.4688 Q661.4844,75.4688 660.75,76.6094 Q660.0313,77.7344 660.0313,79.9531 Q660.0313,82.1719 660.75,83.2969 Q661.4844,84.4219 662.9063,84.4219 Q663.5781,84.4219 664.2031,84.1406 Q664.8281,83.8594 665.5,83.2344 L665.5,86.125 Z "/><text fill="#000000" font-family="Bitstream Vera Sans Mono" font-size="18" lengthAdjust="spacingAndGlyphs" textLength="176" x="684.5" y="86.2314">ThresholdCleaner</text><line style="stroke: #383838; stroke-width: 1.5;" x1="579.5" x2="930.5" y1="97" y2="97"/><text fill="#000000" font-family="Bitstream Vera Sans Mono" font-size="18" lengthAdjust="spacingAndGlyphs" textLength="187" x="584.5" y="117.708">thresholds : dict</text><line style="stroke: #383838; stroke-width: 1.5;" x1="579.5" x2="930.5" y1="125.9531" y2="125.9531"/><text fill="#000000" font-family="Bitstream Vera Sans Mono" font-size="18" lengthAdjust="spacingAndGlyphs" textLength="341" x="584.5" y="146.6611">transform(input_df : DataFrame)</text><!--MD5=[54ac7951262ffacb991525b5e9bebe0c]
class transformer.mapper_custom_data_types--><rect fill="#F8F8F8" filter="url(#f13eq71p1paygx)" height="91.9063" id="transformer.mapper_custom_data_types" style="stroke: #383838; stroke-width: 1.5;" width="606" x="452" y="614"/><ellipse cx="618.5" cy="631" fill="#9B9B9B" rx="12" ry="12" style="stroke: #383838; stroke-width: 1.0;"/><path d="M613.75,624.375 L616.8438,624.375 L618.4219,630.1406 L619.9688,624.375 L623.0781,624.375 L623.0781,637.5 L620.8438,637.5 L620.8438,626.9844 L619.4531,632.7344 L617.3906,632.7344 L615.9844,626.9844 L615.9844,637.5 L613.75,637.5 L613.75,624.375 Z "/><text fill="#000000" font-family="Bitstream Vera Sans Mono" font-size="18" lengthAdjust="spacingAndGlyphs" textLength="264" x="640.5" y="637.2314">mapper_custom_data_types</text><line style="stroke: #383838; stroke-width: 1.5;" x1="453" x2="1057" y1="648" y2="648"/><line style="stroke: #383838; stroke-width: 1.5;" x1="453" x2="1057" y1="656" y2="656"/><text fill="#000000" font-family="Bitstream Vera Sans Mono" font-size="18" lengthAdjust="spacingAndGlyphs" textLength="451" x="458" y="676.708">add_custom_data_type(function_name, func)</text><text fill="#000000" font-family="Bitstream Vera Sans Mono" font-size="18" lengthAdjust="spacingAndGlyphs" textLength="594" x="458" y="697.6611">_get_select_expression_for_custom_type(*mapping_tuple)</text><!--MD5=[7e7fed17a45e8cd5be9d2185e87ff045]
link transformer.Transformer to transformer.Mapper--><path d="M244.48,443.11 C281.24,522.38 352.08,650.71 452,723 C483.74,745.96 521.45,762.81 559.29,775.17 " fill="none" id="transformer.Transformer-&gt;transformer.Mapper" style="stroke: #383838; stroke-width: 1.0;"/><polygon fill="none" points="561.39,768.49,578.45,781.05,557.28,781.87,561.39,768.49" style="stroke: #383838; stroke-width: 1.0;"/><!--MD5=[2e2b80f27f43a8d935884139e08213e3]
reverse link transformer.Mapper to transformer.mapper_custom_data_types--><path d="M755,757.54 C755,740.81 755,722.35 755,706.04 " fill="none" id="transformer.Mapper&lt;-transformer.mapper_custom_data_types" style="stroke: #383838; stroke-width: 1.0; stroke-dasharray: 7.0,7.0;"/><polygon fill="#383838" points="755,762.67,759,753.67,755,757.67,751,753.67,755,762.67" style="stroke: #383838; stroke-width: 1.0;"/><text fill="#000000" font-family="Bitstream Vera Sans Mono" font-size="18" lengthAdjust="spacingAndGlyphs" textLength="286" x="598" y="741.208">provides custom data types</text><!--MD5=[313f4776dfdfffdcf21e496c05580d7c]
link transformer.Transformer to transformer.Exploder--><path d="M391.1,430.29 C411.58,436.45 432.21,442.49 452,448 C475.81,454.64 500.77,461.27 525.7,467.68 " fill="none" id="transformer.Transformer-&gt;transformer.Exploder" style="stroke: #383838; stroke-width: 1.0;"/><polygon fill="none" points="527.55,460.93,545.2,472.65,524.09,474.49,527.55,460.93" style="stroke: #383838; stroke-width: 1.0;"/><!--MD5=[347fd67481f7503f6ab14c87e878e181]
link transformer.Transformer to transformer.NewestByGroup--><path d="M391.08,374 C418.13,374 446.62,374 475.26,374 " fill="none" id="transformer.Transformer-&gt;transformer.NewestByGroup" style="stroke: #383838; stroke-width: 1.0;"/><polygon fill="none" points="475.6,367,495.6,374,475.6,381,475.6,367" style="stroke: #383838; stroke-width: 1.0;"/><!--MD5=[610dba6c952afe106a92c1d50e41e40d]
link transformer.Transformer to transformer.Sieve--><path d="M391.25,317 C411.66,310.98 432.23,305.18 452,300 C486.34,291.01 523.13,282.39 558.8,274.54 " fill="none" id="transformer.Transformer-&gt;transformer.Sieve" style="stroke: #383838; stroke-width: 1.0;"/><polygon fill="none" points="557.44,267.68,578.47,270.27,560.42,281.36,557.44,267.68" style="stroke: #383838; stroke-width: 1.0;"/><!--MD5=[d38f0665fe213be9b12b915a5603d7da]
link transformer.Transformer to transformer.ThresholdCleaner--><path d="M278.25,304.76 C322.53,260.15 385.59,204.59 452,172 C485.01,155.8 522.04,143.75 558.55,134.8 " fill="none" id="transformer.Transformer-&gt;transformer.ThresholdCleaner" style="stroke: #383838; stroke-width: 1.0;"/><polygon fill="none" points="557.1,127.96,578.17,130.27,560.26,141.6,557.1,127.96" style="stroke: #383838; stroke-width: 1.0;"/><!--MD5=[9f6c09a8aec29bbbd903991c1bd2e267]
@startuml

skinparam monochrome true
skinparam defaultFontname Bitstream Vera Sans Mono
skinparam defaultFontSize 18


left to right direction


namespace transformer{
    
  class Transformer {
    .. derived ..
    name : str
    logger : logging.logger
    __
    transform(input_df : DataFrame)
  }
  class Mapper {
    mapping : list
    __
    transform(input_df : DataFrame)
  }
  class Exploder {
    exploded_elem_name : str = "included"
    path_to_array : str = "elem"
    __
    transform(input_df : DataFrame)
  }
  class NewestByGroup {
    group_by : list = ["id"]
    order_by : list = ["updated_at", "deleted_at"]
    __
    transform(input_df : DataFrame)
  }
  class Sieve {
    filter_expression : str
    __
    transform(input_df : DataFrame)
  }
  class ThresholdCleaner {
    thresholds : dict
    __
    transform(input_df : DataFrame)
  }
  class mapper_custom_data_types << (M,orchid) >> {
    add_custom_data_type(function_name, func)
    _get_select_expression_for_custom_type(*mapping_tuple)
  }

  Transformer - -|> Mapper 
  Mapper <. mapper_custom_data_types : provides custom data types
  Transformer - -|> Exploder
  Transformer - -|> NewestByGroup 
  Transformer - -|> Sieve 
  Transformer - -|> ThresholdCleaner 

}
 @enduml

PlantUML version 1.2020.07(Sun Apr 19 13:42:40 CEST 2020)
(GPL source distribution)
Java Runtime: OpenJDK Runtime Environment
JVM: OpenJDK 64-Bit Server VM
Java Version: 1.8.0_242-b08
Operating System: Linux
Default Encoding: UTF-8
Language: en
Country: US
--></g></svg>